<svg xmlns="http://www.w3.org/2000/svg" version="1.1" xmlns:xlink="http://www.w3.org/1999/xlink" width="512" height="512" x="0" y="0" viewBox="0 0 512 512" style="enable-background:new 0 0 512 512" xml:space="preserve" class=""><g><g xmlns="http://www.w3.org/2000/svg"><path d="m15 241h482v30h-482z" fill="#0040a0" data-original="#0040a0"></path><path d="m256 241h241v30h-241z" fill="#00317e" data-original="#00317e"></path><g><path d="m15 331c-8.284 0-15-6.716-15-15v-120c0-8.284 6.716-15 15-15s15 6.716 15 15v120c0 8.284-6.716 15-15 15z" fill="#73bcff" data-original="#73bcff" class=""></path></g><g><path d="m497 331c-8.284 0-15-6.716-15-15v-120c0-8.284 6.716-15 15-15s15 6.716 15 15v120c0 8.284-6.716 15-15 15z" fill="#7984eb" data-original="#7984eb" class=""></path></g><g><path d="m76 361c-8.284 0-15-6.716-15-15v-180c0-8.284 6.716-15 15-15s15 6.716 15 15v180c0 8.284-6.716 15-15 15z" fill="#73bcff" data-original="#73bcff" class=""></path></g><g><path d="m196 361c-8.284 0-15-6.716-15-15v-180c0-8.284 6.716-15 15-15s15 6.716 15 15v180c0 8.284-6.716 15-15 15z" fill="#73bcff" data-original="#73bcff" class=""></path></g><g><path d="m136 391c-8.284 0-15-6.716-15-15v-240c0-8.284 6.716-15 15-15s15 6.716 15 15v240c0 8.284-6.716 15-15 15z" fill="#73bcff" data-original="#73bcff" class=""></path></g><g><path d="m256 391c-8.284 0-15-6.716-15-15v-240c0-8.284 6.716-15 15-15s15 6.716 15 15v240c0 8.284-6.716 15-15 15z" fill="#73bcff" data-original="#73bcff" class=""></path></g><path d="m271 376v-240c0-8.284-6.716-15-15-15v270c8.284 0 15-6.716 15-15z" fill="#7984eb" data-original="#7984eb" class=""></path><g><path d="m436 361c-8.284 0-15-6.716-15-15v-180c0-8.284 6.716-15 15-15s15 6.716 15 15v180c0 8.284-6.716 15-15 15z" fill="#7984eb" data-original="#7984eb" class=""></path></g><g><path d="m376 391c-8.284 0-15-6.716-15-15v-240c0-8.284 6.716-15 15-15s15 6.716 15 15v240c0 8.284-6.716 15-15 15z" fill="#7984eb" data-original="#7984eb" class=""></path></g><g><path d="m316 421c-8.284 0-15-6.716-15-15v-300c0-8.284 6.716-15 15-15s15 6.716 15 15v300c0 8.284-6.716 15-15 15z" fill="#7984eb" data-original="#7984eb" class=""></path></g></g></g></svg>